<svg width="281" height="249" viewBox="0 0 281 249" fill="none" xmlns="http://www.w3.org/2000/svg">
<path d="M25.268 233.133C1.346 219.116 -2.92767 188.864 21.679 161.838C46.0698 134.69 99.5569 110.889 145.363 111.411C191.169 111.933 229.293 136.777 251.026 163.55C272.772 190.195 277.885 218.902 256.242 232.264C234.358 245.759 185.923 244.159 139.583 244.413C93.2305 244.794 49.4187 247.144 25.268 233.133Z" fill="url(#paint0_linear_222_131)"/>
<path fill-rule="evenodd" clip-rule="evenodd" d="M102.93 181.708L106.839 185.617C107.078 185.857 107.078 186.245 106.839 186.485L102.93 190.393C102.69 190.633 102.302 190.633 102.062 190.393C101.822 190.154 101.822 189.765 102.062 189.525L104.922 186.665H85.1555V185.437H104.922L102.062 182.577C101.822 182.337 101.822 181.948 102.062 181.708C102.302 181.469 102.69 181.469 102.93 181.708Z" fill="white"/>
<path fill-rule="evenodd" clip-rule="evenodd" d="M182.889 183.305L186.797 187.213C187.037 187.453 187.037 187.842 186.797 188.082L182.889 191.99C182.649 192.23 182.26 192.23 182.02 191.99C181.78 191.75 181.78 191.361 182.02 191.122L184.88 188.262H165.114V187.034H184.88L182.02 184.174C181.78 183.934 181.78 183.545 182.02 183.305C182.26 183.065 182.649 183.065 182.889 183.305Z" fill="white"/>
<path d="M199.75 188.273H208.909V209.208H199.75V188.273Z" fill="white"/>
<path d="M211.316 166.031H220.568V209.208H211.316V166.031Z" fill="#CA111F"/>
<path d="M116.967 159.398C116.967 156.684 119.167 154.485 121.88 154.485H148.533C151.247 154.485 153.446 156.684 153.446 159.398V219.453C153.446 222.167 151.247 224.366 148.533 224.366H121.88C119.167 224.366 116.967 222.167 116.967 219.453V159.398Z" fill="black"/>
<path d="M118.564 159.643C118.564 157.608 120.214 155.959 122.249 155.959H147.919C149.954 155.959 151.604 157.608 151.604 159.643V219.091C151.604 221.126 149.954 222.776 147.919 222.776H122.249C120.214 222.776 118.564 221.126 118.564 219.091V159.643Z" fill="white"/>
<path d="M124.439 220.543C124.439 220.276 124.655 220.059 124.922 220.059H145.228C145.495 220.059 145.711 220.276 145.711 220.543V220.543C145.711 220.81 145.495 221.026 145.228 221.026H124.922C124.655 221.026 124.439 220.81 124.439 220.543V220.543Z" fill="black"/>
<path d="M121.143 168.119C121.143 167.305 121.803 166.645 122.617 166.645H147.551C148.365 166.645 149.025 167.305 149.025 168.119V171.926C149.025 172.74 148.365 173.4 147.551 173.4H122.617C121.803 173.4 121.143 172.74 121.143 171.926V168.119Z" fill="#50C3C8"/>
<path d="M121.143 176.225C121.143 175.411 121.803 174.751 122.617 174.751H147.551C148.365 174.751 149.025 175.411 149.025 176.225V180.032C149.025 180.846 148.365 181.506 147.551 181.506H122.617C121.803 181.506 121.143 180.846 121.143 180.032V176.225Z" fill="#50C3C8"/>
<path d="M121.143 184.332C121.143 183.518 121.803 182.858 122.617 182.858H147.551C148.365 182.858 149.025 183.518 149.025 184.332V188.139C149.025 188.953 148.365 189.613 147.551 189.613H122.617C121.803 189.613 121.143 188.953 121.143 188.139V184.332Z" fill="#50C3C8"/>
<path d="M121.143 192.438C121.143 191.624 121.803 190.964 122.617 190.964H147.551C148.365 190.964 149.025 191.624 149.025 192.438V209.756C149.025 210.57 148.365 211.23 147.551 211.23H122.617C121.803 211.23 121.143 210.57 121.143 209.756V192.438Z" fill="#FCB33A"/>
<path fill-rule="evenodd" clip-rule="evenodd" d="M135.023 205.703C137.6 205.703 139.69 203.613 139.69 201.036C139.69 198.458 137.6 196.368 135.023 196.368C132.445 196.368 130.355 198.458 130.355 201.036C130.355 203.613 132.445 205.703 135.023 205.703ZM135.023 206.317C137.94 206.317 140.304 203.953 140.304 201.036C140.304 198.119 137.94 195.754 135.023 195.754C132.106 195.754 129.741 198.119 129.741 201.036C129.741 203.953 132.106 206.317 135.023 206.317Z" fill="black"/>
<path d="M137.233 200.61C137.561 200.799 137.561 201.272 137.233 201.461L134.286 203.163C133.958 203.352 133.549 203.116 133.549 202.738V199.334C133.549 198.956 133.958 198.719 134.286 198.908L137.233 200.61Z" fill="black"/>
<path d="M49.6589 177.076C49.6589 173.689 52.4045 170.943 55.7914 170.943H72.1447C75.5316 170.943 78.2772 173.689 78.2772 177.076V193.429C78.2772 196.816 75.5316 199.562 72.1447 199.562H55.7914C52.4045 199.562 49.6589 196.816 49.6589 193.429V177.076Z" fill="url(#paint1_linear_222_131)"/>
<path d="M18 18.877H247.5V28.0919H18V18.877Z" fill="#50C3C8"/>
<path d="M62 59H202V69H62V59Z" fill="#50C3C8"/>
<path d="M31.7284 24.8584L25 1.34339H30.431L34.3233 17.6822H34.5185L38.8128 1.34339H43.463L47.7457 17.7166H47.9524L51.8448 1.34339H57.2757L50.5473 24.8584H45.7019L41.224 9.48408H41.0403L36.5738 24.8584H31.7284Z" fill="black"/>
<path d="M65.9876 25.2029C64.1735 25.2029 62.612 24.8354 61.303 24.1006C60.0017 23.3581 58.999 22.3094 58.2947 20.9545C57.5905 19.592 57.2384 17.9807 57.2384 16.1206C57.2384 14.3065 57.5905 12.7143 58.2947 11.3442C58.999 9.97398 59.9902 8.90616 61.2686 8.14069C62.5545 7.37523 64.0625 6.9925 65.7925 6.9925C66.956 6.9925 68.0391 7.18004 69.0418 7.55512C70.0523 7.92254 70.9325 8.4775 71.6827 9.22C72.4405 9.96249 73.0299 10.8964 73.4509 12.0216C73.8719 13.1392 74.0824 14.4481 74.0824 15.9484V17.2918H59.1903V14.2606H69.4782C69.4782 13.5563 69.3251 12.9325 69.0189 12.389C68.7127 11.8455 68.2879 11.4207 67.7444 11.1145C67.2086 10.8007 66.5847 10.6438 65.8728 10.6438C65.1303 10.6438 64.472 10.816 63.8979 11.1604C63.3315 11.4972 62.8875 11.9527 62.566 12.5268C62.2445 13.0932 62.08 13.7247 62.0723 14.4213V17.3033C62.0723 18.1759 62.233 18.9299 62.5545 19.5652C62.8837 20.2006 63.3468 20.6905 63.9439 21.0349C64.5409 21.3794 65.249 21.5516 66.068 21.5516C66.6115 21.5516 67.109 21.4751 67.5607 21.322C68.0123 21.1689 68.3989 20.9392 68.7203 20.633C69.0418 20.3269 69.2868 19.9518 69.4552 19.5078L73.9791 19.8063C73.7494 20.8933 73.2787 21.8425 72.5668 22.6539C71.8626 23.4576 70.9517 24.0853 69.8341 24.5369C68.7242 24.9809 67.442 25.2029 65.9876 25.2029Z" fill="black"/>
<path d="M77.2744 24.8584V7.22214H82.1657V24.8584H77.2744ZM79.7315 4.94872C79.0043 4.94872 78.3805 4.70759 77.86 4.22535C77.3471 3.73546 77.0907 3.14988 77.0907 2.46862C77.0907 1.79501 77.3471 1.21709 77.86 0.734845C78.3805 0.244949 79.0043 0 79.7315 0C80.4587 0 81.0787 0.244949 81.5916 0.734845C82.1121 1.21709 82.3724 1.79501 82.3724 2.46862C82.3724 3.14988 82.1121 3.73546 81.5916 4.22535C81.0787 4.70759 80.4587 4.94872 79.7315 4.94872Z" fill="black"/>
<path d="M90.9752 1.34339V24.8584H86.0839V1.34339H90.9752Z" fill="black"/>
<path d="M105.856 24.8584L101.056 7.22214H106.005L108.738 19.0715H108.899L111.746 7.22214H116.603L119.496 19.0026H119.646L122.332 7.22214H127.27L122.482 24.8584H117.303L114.272 13.7668H114.054L111.023 24.8584H105.856Z" fill="black"/>
<path d="M129.879 24.8584V7.22214H134.77V24.8584H129.879ZM132.336 4.94872C131.609 4.94872 130.985 4.70759 130.464 4.22535C129.952 3.73546 129.695 3.14988 129.695 2.46862C129.695 1.79501 129.952 1.21709 130.464 0.734845C130.985 0.244949 131.609 0 132.336 0C133.063 0 133.683 0.244949 134.196 0.734845C134.717 1.21709 134.977 1.79501 134.977 2.46862C134.977 3.14988 134.717 3.73546 134.196 4.22535C133.683 4.70759 133.063 4.94872 132.336 4.94872Z" fill="black"/>
<path d="M138.688 24.8584V7.22214H143.43V10.2993H143.614C143.936 9.20469 144.475 8.37799 145.233 7.8192C145.991 7.25276 146.864 6.96954 147.851 6.96954C148.096 6.96954 148.36 6.98485 148.643 7.01546C148.926 7.04608 149.175 7.08818 149.39 7.14176V11.4819C149.16 11.413 148.842 11.3518 148.437 11.2982C148.031 11.2446 147.66 11.2179 147.323 11.2179C146.603 11.2179 145.96 11.3748 145.394 11.6886C144.835 11.9948 144.391 12.4235 144.062 12.9746C143.74 13.5257 143.58 14.1611 143.58 14.8806V24.8584H138.688Z" fill="black"/>
<path d="M165.901 25.1454C164.561 25.1454 163.348 24.801 162.261 24.1121C161.182 23.4155 160.324 22.3936 159.689 21.0464C159.061 19.6915 158.747 18.0305 158.747 16.0632C158.747 14.0424 159.073 12.3622 159.723 11.0227C160.374 9.67545 161.239 8.66886 162.318 8.00291C163.405 7.3293 164.595 6.9925 165.889 6.9925C166.877 6.9925 167.699 7.1609 168.358 7.49771C169.024 7.82686 169.56 8.2402 169.965 8.73775C170.379 9.22765 170.692 9.70989 170.907 10.1845H171.056V1.34339H175.936V24.8584H171.113V22.0338H170.907C170.677 22.5237 170.352 23.0098 169.931 23.492C169.517 23.9666 168.978 24.3608 168.312 24.6747C167.653 24.9885 166.85 25.1454 165.901 25.1454ZM167.451 21.2531C168.239 21.2531 168.905 21.0387 169.449 20.6101C170 20.1738 170.421 19.5652 170.712 18.7844C171.01 18.0037 171.159 17.0889 171.159 16.0403C171.159 14.9916 171.014 14.0807 170.723 13.3076C170.432 12.5344 170.011 11.9374 169.46 11.5164C168.909 11.0954 168.239 10.8849 167.451 10.8849C166.647 10.8849 165.969 11.103 165.418 11.5393C164.867 11.9757 164.45 12.5804 164.167 13.3535C163.884 14.1266 163.742 15.0222 163.742 16.0403C163.742 17.066 163.884 17.9731 164.167 18.7615C164.458 19.5423 164.875 20.1546 165.418 20.5986C165.969 21.0349 166.647 21.2531 167.451 21.2531Z" fill="black"/>
<path d="M184.986 25.1914C183.861 25.1914 182.858 24.9962 181.978 24.6058C181.098 24.2078 180.401 23.6222 179.888 22.8491C179.383 22.0683 179.131 21.0961 179.131 19.9326C179.131 18.9529 179.311 18.13 179.67 17.464C180.03 16.7981 180.52 16.2622 181.14 15.8566C181.76 15.4509 182.464 15.1447 183.253 14.938C184.049 14.7313 184.883 14.5859 185.756 14.5017C186.781 14.3945 187.608 14.295 188.236 14.2032C188.864 14.1036 189.319 13.9582 189.602 13.7668C189.885 13.5755 190.027 13.2923 190.027 12.9172V12.8483C190.027 12.1211 189.797 11.5585 189.338 11.1604C188.886 10.7624 188.243 10.5634 187.409 10.5634C186.529 10.5634 185.828 10.7586 185.308 11.149C184.787 11.5317 184.443 12.0139 184.275 12.5957L179.751 12.2283C179.98 11.1566 180.432 10.2304 181.106 9.44964C181.779 8.66121 182.648 8.05649 183.712 7.63549C184.784 7.20683 186.024 6.9925 187.432 6.9925C188.412 6.9925 189.35 7.10732 190.245 7.33696C191.148 7.5666 191.948 7.92254 192.645 8.40478C193.349 8.88702 193.904 9.50704 194.31 10.2649C194.715 11.015 194.918 11.9144 194.918 12.9631V24.8584H190.28V22.4127H190.142C189.859 22.9639 189.48 23.4499 189.005 23.8709C188.531 24.2843 187.96 24.6096 187.294 24.8469C186.628 25.0765 185.859 25.1914 184.986 25.1914ZM186.387 21.8157C187.107 21.8157 187.742 21.6741 188.293 21.3908C188.844 21.1 189.277 20.7096 189.591 20.2197C189.905 19.7298 190.061 19.1748 190.061 18.5548V16.6833C189.908 16.7828 189.698 16.8746 189.43 16.9588C189.17 17.0354 188.875 17.1081 188.546 17.177C188.217 17.2382 187.888 17.2956 187.558 17.3492C187.229 17.3951 186.931 17.4372 186.663 17.4755C186.089 17.5597 185.587 17.6937 185.159 17.8774C184.73 18.0611 184.397 18.3099 184.16 18.6237C183.922 18.9299 183.804 19.3126 183.804 19.7719C183.804 20.4378 184.045 20.9469 184.527 21.299C185.017 21.6435 185.637 21.8157 186.387 21.8157Z" fill="black"/>
<path d="M208.197 7.22214V10.8964H197.312V7.22214H208.197ZM199.804 24.8584V5.94764C199.804 4.66932 200.053 3.60916 200.55 2.76715C201.055 1.92514 201.744 1.29363 202.617 0.872627C203.49 0.451623 204.481 0.241121 205.591 0.241121C206.341 0.241121 207.026 0.298531 207.646 0.413351C208.274 0.52817 208.741 0.631507 209.047 0.723363L208.174 4.39758C207.983 4.33635 207.746 4.27893 207.462 4.22535C207.187 4.17177 206.904 4.14498 206.613 4.14498C205.893 4.14498 205.392 4.31338 205.109 4.65019C204.825 4.97933 204.684 5.44244 204.684 6.0395V24.8584H199.804Z" fill="black"/>
<path d="M222.495 17.3492V7.22214H227.386V24.8584H222.69V21.6549H222.507C222.108 22.6883 221.446 23.5188 220.52 24.1465C219.602 24.7742 218.48 25.088 217.156 25.088C215.977 25.088 214.94 24.8201 214.044 24.2843C213.149 23.7485 212.448 22.9868 211.943 21.9994C211.446 21.0119 211.193 19.8293 211.185 18.4515V7.22214H216.077V17.5788C216.084 18.6199 216.364 19.4427 216.915 20.0475C217.466 20.6522 218.205 20.9545 219.131 20.9545C219.72 20.9545 220.271 20.8206 220.784 20.5527C221.297 20.2771 221.71 19.8714 222.024 19.3356C222.346 18.7998 222.503 18.1376 222.495 17.3492ZM215.813 4.81093C215.154 4.81093 214.588 4.58129 214.113 4.12202C213.639 3.65508 213.401 3.10395 213.401 2.46862C213.401 1.81797 213.639 1.26684 214.113 0.815218C214.588 0.363595 215.154 0.137784 215.813 0.137784C216.479 0.137784 217.041 0.363595 217.5 0.815218C217.967 1.26684 218.201 1.81797 218.201 2.46862C218.201 3.10395 217.967 3.65508 217.5 4.12202C217.041 4.58129 216.479 4.81093 215.813 4.81093ZM222.84 4.81093C222.181 4.81093 221.615 4.58129 221.14 4.12202C220.666 3.65508 220.428 3.10395 220.428 2.46862C220.428 1.81797 220.666 1.26684 221.14 0.815218C221.615 0.363595 222.181 0.137784 222.84 0.137784C223.505 0.137784 224.068 0.363595 224.527 0.815218C224.994 1.26684 225.228 1.81797 225.228 2.46862C225.228 3.10395 224.994 3.65508 224.527 4.12202C224.068 4.58129 223.505 4.81093 222.84 4.81093Z" fill="black"/>
<path d="M231.299 24.8584V7.22214H236.041V10.2993H236.225C236.546 9.20469 237.086 8.37799 237.844 7.8192C238.601 7.25276 239.474 6.96954 240.461 6.96954C240.706 6.96954 240.97 6.98485 241.254 7.01546C241.537 7.04608 241.786 7.08818 242 7.14176V11.4819C241.77 11.413 241.453 11.3518 241.047 11.2982C240.641 11.2446 240.27 11.2179 239.933 11.2179C239.214 11.2179 238.571 11.3748 238.004 11.6886C237.445 11.9948 237.002 12.4235 236.672 12.9746C236.351 13.5257 236.19 14.1611 236.19 14.8806V24.8584H231.299Z" fill="black"/>
<path d="M69.5513 63.9815V40.4665H74.4427V49.3076H74.5919C74.8063 48.833 75.1163 48.3507 75.522 47.8608C75.9353 47.3633 76.4711 46.9499 77.1294 46.6208C77.7954 46.284 78.6221 46.1156 79.6095 46.1156C80.8955 46.1156 82.082 46.4524 83.1689 47.126C84.2559 47.792 85.1247 48.7985 85.7753 50.1458C86.426 51.4853 86.7513 53.1655 86.7513 55.1863C86.7513 57.1536 86.4336 58.8146 85.7983 60.1695C85.1706 61.5167 84.3133 62.5386 83.2263 63.2352C82.147 63.9241 80.9376 64.2685 79.598 64.2685C78.6489 64.2685 77.8413 64.1116 77.1754 63.7978C76.5171 63.4839 75.9774 63.0897 75.5564 62.6151C75.1354 62.1329 74.8139 61.6468 74.5919 61.1569H74.3738V63.9815H69.5513ZM74.3393 55.1634C74.3393 56.212 74.4848 57.1268 74.7756 57.9075C75.0665 58.6883 75.4875 59.2969 76.0386 59.7332C76.5898 60.1618 77.2596 60.3762 78.048 60.3762C78.8441 60.3762 79.5177 60.158 80.0688 59.7217C80.6199 59.2777 81.0371 58.6653 81.3203 57.8846C81.6112 57.0961 81.7567 56.1891 81.7567 55.1634C81.7567 54.1453 81.615 53.2497 81.3318 52.4766C81.0486 51.7035 80.6314 51.0988 80.0803 50.6624C79.5292 50.2261 78.8517 50.008 78.048 50.008C77.2519 50.008 76.5783 50.2185 76.0272 50.6395C75.4837 51.0605 75.0665 51.6575 74.7756 52.4307C74.4848 53.2038 74.3393 54.1147 74.3393 55.1634Z" fill="black"/>
<path d="M90.015 63.9815V46.3452H94.7571V49.4224H94.9408C95.2623 48.3278 95.8019 47.5011 96.5597 46.9423C97.3175 46.3758 98.1902 46.0926 99.1776 46.0926C99.4226 46.0926 99.6867 46.1079 99.9699 46.1386C100.253 46.1692 100.502 46.2113 100.716 46.2649V50.605C100.487 50.5361 100.169 50.4749 99.7632 50.4213C99.3575 50.3677 98.9863 50.3409 98.6495 50.3409C97.9299 50.3409 97.2869 50.4979 96.7205 50.8117C96.1617 51.1179 95.7177 51.5465 95.3886 52.0977C95.0671 52.6488 94.9063 53.2841 94.9063 54.0037V63.9815H90.015Z" fill="black"/>
<path d="M110.461 64.3259C108.647 64.3259 107.086 63.9585 105.777 63.2237C104.476 62.4812 103.473 61.4325 102.769 60.0776C102.064 58.7151 101.712 57.1038 101.712 55.2437C101.712 53.4296 102.064 51.8374 102.769 50.4672C103.473 49.0971 104.464 48.0292 105.742 47.2638C107.028 46.4983 108.536 46.1156 110.266 46.1156C111.43 46.1156 112.513 46.3031 113.516 46.6782C114.526 47.0456 115.406 47.6006 116.157 48.3431C116.914 49.0856 117.504 50.0195 117.925 51.1447C118.346 52.2623 118.556 53.5712 118.556 55.0715V56.4149H103.664V53.3837H113.952C113.952 52.6794 113.799 52.0556 113.493 51.5121C113.187 50.9686 112.762 50.5438 112.218 50.2376C111.682 49.9238 111.059 49.7668 110.347 49.7668C109.604 49.7668 108.946 49.9391 108.372 50.2835C107.805 50.6203 107.361 51.0758 107.04 51.6499C106.718 52.2163 106.554 52.8478 106.546 53.5444V56.4264C106.546 57.299 106.707 58.053 107.028 58.6883C107.358 59.3236 107.821 59.8135 108.418 60.158C109.015 60.5025 109.723 60.6747 110.542 60.6747C111.085 60.6747 111.583 60.5981 112.035 60.445C112.486 60.292 112.873 60.0623 113.194 59.7561C113.516 59.4499 113.761 59.0749 113.929 58.6309L118.453 58.9294C118.223 60.0164 117.753 60.9656 117.041 61.777C116.336 62.5807 115.426 63.2084 114.308 63.66C113.198 64.104 111.916 64.3259 110.461 64.3259Z" fill="black"/>
<path d="M126.64 53.7855V63.9815H121.748V46.3452H126.41V49.4568H126.617C127.007 48.4311 127.661 47.6197 128.58 47.0227C129.499 46.4179 130.612 46.1156 131.921 46.1156C133.146 46.1156 134.214 46.3835 135.125 46.9193C136.036 47.4552 136.744 48.2206 137.249 49.2157C137.754 50.2032 138.007 51.382 138.007 52.7522V63.9815H133.115V53.6248C133.123 52.5455 132.847 51.7035 132.289 51.0988C131.73 50.4864 130.961 50.1802 129.981 50.1802C129.322 50.1802 128.741 50.3218 128.236 50.605C127.738 50.8882 127.348 51.3016 127.064 51.8451C126.789 52.3809 126.647 53.0277 126.64 53.7855Z" fill="black"/>
<path d="M146.753 53.7855V63.9815H141.862V46.3452H146.523V49.4568H146.73C147.12 48.4311 147.775 47.6197 148.693 47.0227C149.612 46.4179 150.726 46.1156 152.035 46.1156C153.259 46.1156 154.327 46.3835 155.238 46.9193C156.149 47.4552 156.857 48.2206 157.362 49.2157C157.868 50.2032 158.12 51.382 158.12 52.7522V63.9815H153.229V53.6248C153.236 52.5455 152.961 51.7035 152.402 51.0988C151.843 50.4864 151.074 50.1802 150.094 50.1802C149.436 50.1802 148.854 50.3218 148.349 50.605C147.851 50.8882 147.461 51.3016 147.178 51.8451C146.902 52.3809 146.761 53.0277 146.753 53.7855Z" fill="black"/>
<path d="M170.013 64.3259C168.198 64.3259 166.637 63.9585 165.328 63.2237C164.027 62.4812 163.024 61.4325 162.32 60.0776C161.615 58.7151 161.263 57.1038 161.263 55.2437C161.263 53.4296 161.615 51.8374 162.32 50.4672C163.024 49.0971 164.015 48.0292 165.293 47.2638C166.579 46.4983 168.087 46.1156 169.817 46.1156C170.981 46.1156 172.064 46.3031 173.067 46.6782C174.077 47.0456 174.957 47.6006 175.708 48.3431C176.465 49.0856 177.055 50.0195 177.476 51.1447C177.897 52.2623 178.107 53.5712 178.107 55.0715V56.4149H163.215V53.3837H173.503C173.503 52.6794 173.35 52.0556 173.044 51.5121C172.738 50.9686 172.313 50.5438 171.769 50.2376C171.233 49.9238 170.61 49.7668 169.898 49.7668C169.155 49.7668 168.497 49.9391 167.923 50.2835C167.356 50.6203 166.912 51.0758 166.591 51.6499C166.269 52.2163 166.105 52.8478 166.097 53.5444V56.4264C166.097 57.299 166.258 58.053 166.579 58.6883C166.909 59.3236 167.372 59.8135 167.969 60.158C168.566 60.5025 169.274 60.6747 170.093 60.6747C170.636 60.6747 171.134 60.5981 171.586 60.445C172.037 60.292 172.424 60.0623 172.745 59.7561C173.067 59.4499 173.312 59.0749 173.48 58.6309L178.004 58.9294C177.774 60.0164 177.304 60.9656 176.592 61.777C175.887 62.5807 174.977 63.2084 173.859 63.66C172.749 64.104 171.467 64.3259 170.013 64.3259Z" fill="black"/>
<path d="M186.191 53.7855V63.9815H181.299V46.3452H185.961V49.4568H186.168C186.558 48.4311 187.212 47.6197 188.131 47.0227C189.05 46.4179 190.163 46.1156 191.472 46.1156C192.697 46.1156 193.765 46.3835 194.676 46.9193C195.587 47.4552 196.295 48.2206 196.8 49.2157C197.305 50.2032 197.558 51.382 197.558 52.7522V63.9815H192.666V53.6248C192.674 52.5455 192.399 51.7035 191.84 51.0988C191.281 50.4864 190.512 50.1802 189.532 50.1802C188.874 50.1802 188.292 50.3218 187.787 50.605C187.289 50.8882 186.899 51.3016 186.615 51.8451C186.34 52.3809 186.198 53.0277 186.191 53.7855Z" fill="black"/>
<defs>
<linearGradient id="paint0_linear_222_131" x1="133.402" y1="245.443" x2="130.105" y2="111.702" gradientUnits="userSpaceOnUse">
<stop stop-color="#50C3C8"/>
<stop offset="1" stop-color="#2846C3"/>
</linearGradient>
<linearGradient id="paint1_linear_222_131" x1="49.2687" y1="184.2" x2="78.2791" y2="184.254" gradientUnits="userSpaceOnUse">
<stop stop-color="#FF0460"/>
<stop offset="0.0001" stop-color="#FF0460"/>
<stop offset="1" stop-color="#FFCF11"/>
</linearGradient>
</defs>
</svg>
