<svg width="189" height="79" viewBox="0 0 189 79" fill="none" xmlns="http://www.w3.org/2000/svg">
<path d="M89 17.5C89 25.5081 82.5081 32 74.5 32C66.4919 32 60 25.5081 60 17.5C60 9.49187 66.4919 3 74.5 3C82.5081 3 89 9.49187 89 17.5Z" fill="white"/>
<path d="M76 61.5C76 67.299 71.299 72 65.5 72C59.701 72 55 67.299 55 61.5C55 55.701 59.701 51 65.5 51C71.299 51 76 55.701 76 61.5Z" fill="white"/>
<path d="M189 11C189 17.0751 184.075 22 178 22C171.925 22 167 17.0751 167 11C167 4.92487 171.925 0 178 0C184.075 0 189 4.92487 189 11Z" fill="white"/>
<path d="M176 62.5C176 67.7467 171.747 72 166.5 72C161.253 72 157 67.7467 157 62.5C157 57.2533 161.253 53 166.5 53C171.747 53 176 57.2533 176 62.5Z" fill="white"/>
<path d="M141 36.5C141 44.5081 134.732 51 127 51C119.268 51 113 44.5081 113 36.5C113 28.4919 119.268 22 127 22C134.732 22 141 28.4919 141 36.5Z" fill="white"/>
<path d="M29 65C29 72.732 22.5081 79 14.5 79C6.49187 79 0 72.732 0 65C0 57.268 6.49187 51 14.5 51C22.5081 51 29 57.268 29 65Z" fill="white"/>
<path fill-rule="evenodd" clip-rule="evenodd" d="M74.8286 17.7429L13.8858 65.5715L11.9807 63.144L72.9236 15.3155L74.8286 17.7429Z" fill="white"/>
<path fill-rule="evenodd" clip-rule="evenodd" d="M74.8284 17.7429L65.5713 61.7143L62.5518 61.0786L71.8089 17.1072L74.8284 17.7429Z" fill="white"/>
<path fill-rule="evenodd" clip-rule="evenodd" d="M126.514 36.2571L65.5715 61.7142L64.3821 58.8669L125.325 33.4098L126.514 36.2571Z" fill="white"/>
<path fill-rule="evenodd" clip-rule="evenodd" d="M178.2 10.8L126.514 36.2572L125.151 33.489L176.837 8.03187L178.2 10.8Z" fill="white"/>
<path fill-rule="evenodd" clip-rule="evenodd" d="M165.857 62.4857L126.514 36.2572L128.226 33.6897L167.569 59.9183L165.857 62.4857Z" fill="white"/>
<path fill-rule="evenodd" clip-rule="evenodd" d="M178.2 10.8001L73.2857 15.4287L73.1497 12.3459L178.064 7.71738L178.2 10.8001Z" fill="white"/>
</svg>
