<svg width="330" height="190" viewBox="0 0 330 190" fill="none" xmlns="http://www.w3.org/2000/svg">
<path d="M128.864 62V32.9091H138.679C140.573 32.9091 142.15 33.2405 143.409 33.9034C144.678 34.5663 145.63 35.4706 146.264 36.6165C146.899 37.7623 147.216 39.0644 147.216 40.5227C147.216 41.7348 147.012 42.7718 146.605 43.6335C146.198 44.4953 145.644 45.1913 144.943 45.7216C144.242 46.2519 143.461 46.6354 142.599 46.8722V47.0994C143.537 47.1657 144.446 47.4972 145.327 48.0938C146.207 48.6809 146.932 49.5047 147.5 50.5653C148.068 51.6259 148.352 52.8949 148.352 54.3722C148.352 55.84 148.026 57.1515 147.372 58.3068C146.719 59.4527 145.715 60.357 144.361 61.0199C143.016 61.6733 141.302 62 139.219 62H128.864ZM131.52 59.6136H139.219C141.463 59.6136 143.12 59.1165 144.19 58.1222C145.27 57.1278 145.81 55.8778 145.81 54.3722C145.81 53.2642 145.54 52.2604 145 51.3608C144.47 50.4517 143.717 49.732 142.741 49.2017C141.776 48.6714 140.639 48.4062 139.332 48.4062H131.52V59.6136ZM131.52 46.0483H138.92C140.066 46.0483 141.07 45.8116 141.932 45.3381C142.794 44.8646 143.466 44.2112 143.949 43.3778C144.432 42.5445 144.673 41.5928 144.673 40.5227C144.673 38.9792 144.171 37.7244 143.168 36.7585C142.164 35.7831 140.668 35.2955 138.679 35.2955H131.52V46.0483ZM154.762 62V32.9091H164.151C166.216 32.9091 167.939 33.2831 169.322 34.0312C170.714 34.7699 171.76 35.7973 172.461 37.1136C173.171 38.4205 173.526 39.9214 173.526 41.6165C173.526 43.3116 173.171 44.8078 172.461 46.1051C171.76 47.4025 170.719 48.4157 169.336 49.1449C167.953 49.8741 166.239 50.2386 164.194 50.2386H156.197V47.8097H164.123C165.638 47.8097 166.897 47.5587 167.901 47.0568C168.915 46.5549 169.667 45.84 170.16 44.9119C170.662 43.9839 170.913 42.8854 170.913 41.6165C170.913 40.3475 170.662 39.2396 170.16 38.2926C169.658 37.3362 168.9 36.5975 167.887 36.0767C166.883 35.5559 165.614 35.2955 164.08 35.2955H157.418V62H154.762ZM167.589 48.875L174.748 62H171.68L164.592 48.875H167.589ZM180.039 62H177.255L187.837 32.9091H190.678L201.261 62H198.477L189.357 36.3608H189.158L180.039 62ZM182.042 50.8494H196.474V53.2358H182.042V50.8494ZM228.903 32.9091V62H226.317L209.13 37.6392H208.903V62H206.246V32.9091H208.817L226.062 57.2983H226.289V32.9091H228.903ZM245.16 62H236.637V32.9091H245.671C248.446 32.9091 250.818 33.4867 252.788 34.642C254.767 35.7973 256.282 37.4545 257.333 39.6136C258.384 41.7727 258.91 44.3627 258.91 47.3835C258.91 50.4328 258.37 53.0511 257.29 55.2386C256.22 57.4167 254.658 59.0881 252.603 60.2528C250.558 61.4176 248.076 62 245.16 62ZM239.293 59.6136H245.004C247.504 59.6136 249.596 59.1212 251.282 58.1364C252.968 57.1515 254.232 55.7453 255.075 53.9176C255.917 52.09 256.339 49.9119 256.339 47.3835C256.329 44.8741 255.913 42.715 255.089 40.9062C254.274 39.0975 253.062 37.7102 251.452 36.7443C249.852 35.7784 247.873 35.2955 245.515 35.2955H239.293V59.6136Z" fill="black"/>
<path d="M75.8636 79.9091H78.9318L89.4858 105.25H89.7415L100.295 79.9091H103.364V109H100.864V85.5199H100.636L90.821 109H88.4062L78.5909 85.5199H78.3636V109H75.8636V79.9091ZM111.098 109V79.9091H127.973V82.2955H113.754V93.2472H127.078V95.6335H113.754V106.614H128.257V109H111.098ZM134.848 109V79.9091H151.723V82.2955H137.504V93.2472H150.828V95.6335H137.504V106.614H152.007V109H134.848ZM156.837 82.2955V79.9091H177.93V82.2955H168.712V109H166.055V82.2955H156.837ZM186.567 79.9091V109H183.911V79.9091H186.567ZM216.957 79.9091V109H214.372L197.185 84.6392H196.957V109H194.301V79.9091H196.872L214.116 104.298H214.344V79.9091H216.957ZM244.82 89C244.554 88.0341 244.166 87.1297 243.655 86.2869C243.143 85.4347 242.509 84.6913 241.751 84.0568C241.003 83.4129 240.137 82.911 239.152 82.5511C238.177 82.1913 237.088 82.0114 235.885 82.0114C233.991 82.0114 232.296 82.5038 230.8 83.4886C229.304 84.4735 228.12 85.8939 227.249 87.75C226.387 89.6061 225.956 91.8409 225.956 94.4545C225.956 97.0587 226.392 99.2888 227.263 101.145C228.134 103.001 229.327 104.426 230.842 105.42C232.367 106.405 234.109 106.898 236.07 106.898C237.859 106.898 239.441 106.5 240.814 105.705C242.187 104.909 243.257 103.773 244.024 102.295C244.801 100.818 245.179 99.0616 245.161 97.0256L246.013 97.2955H236.695V94.9091H247.746V97.2955C247.746 99.7765 247.244 101.921 246.24 103.73C245.236 105.539 243.858 106.936 242.107 107.92C240.355 108.905 238.342 109.398 236.07 109.398C233.532 109.398 231.311 108.787 229.408 107.565C227.504 106.334 226.022 104.601 224.962 102.366C223.911 100.122 223.385 97.4848 223.385 94.4545C223.385 92.1723 223.688 90.1127 224.294 88.2756C224.9 86.4384 225.757 84.8665 226.865 83.5597C227.982 82.2528 229.304 81.2538 230.828 80.5625C232.353 79.8617 234.038 79.5114 235.885 79.5114C237.476 79.5114 238.929 79.7623 240.246 80.2642C241.571 80.7661 242.736 81.4574 243.74 82.3381C244.753 83.2093 245.582 84.2178 246.226 85.3636C246.879 86.5 247.32 87.7121 247.547 89H244.82Z" fill="black"/>
<path d="M100.528 157V127.909H106.679V140.736H107.062L117.531 127.909H124.903L114.108 140.935L125.031 157H117.673L109.705 145.04L106.679 148.733V157H100.528ZM146.075 127.909H152.226V146.801C152.226 148.922 151.719 150.778 150.706 152.369C149.702 153.96 148.296 155.201 146.487 156.091C144.679 156.972 142.571 157.412 140.166 157.412C137.751 157.412 135.64 156.972 133.831 156.091C132.022 155.201 130.616 153.96 129.612 152.369C128.608 150.778 128.107 148.922 128.107 146.801V127.909H134.257V146.276C134.257 147.384 134.499 148.368 134.982 149.23C135.474 150.092 136.165 150.769 137.055 151.261C137.946 151.754 138.982 152 140.166 152C141.359 152 142.396 151.754 143.277 151.261C144.167 150.769 144.854 150.092 145.337 149.23C145.829 148.368 146.075 147.384 146.075 146.276V127.909ZM181.619 127.909V157H176.306L163.65 138.69H163.437V157H157.286V127.909H162.684L175.241 146.205H175.496V127.909H181.619ZM197.013 157H186.7V127.909H197.098C200.024 127.909 202.543 128.491 204.655 129.656C206.767 130.812 208.391 132.473 209.527 134.642C210.673 136.811 211.246 139.405 211.246 142.426C211.246 145.456 210.673 148.061 209.527 150.239C208.391 152.417 206.757 154.088 204.626 155.253C202.505 156.418 199.967 157 197.013 157ZM192.851 151.73H196.757C198.575 151.73 200.105 151.408 201.345 150.764C202.595 150.111 203.533 149.102 204.158 147.739C204.792 146.366 205.109 144.595 205.109 142.426C205.109 140.277 204.792 138.52 204.158 137.156C203.533 135.793 202.6 134.789 201.359 134.145C200.119 133.501 198.589 133.179 196.771 133.179H192.851V151.73ZM215.802 157V127.909H235.404V132.98H221.952V139.912H234.396V144.983H221.952V151.929H235.461V157H215.802ZM264.626 127.909V157H259.314L246.658 138.69H246.445V157H240.294V127.909H245.692L258.249 146.205H258.504V127.909H264.626Z" fill="black"/>
<path d="M326.894 47.9011L298.542 64.2699V31.5323L326.894 47.9011Z" fill="#FCB33A"/>
<path d="M299.802 47.9011L271.451 64.2699V31.5323L299.802 47.9011Z" fill="#FCB33A"/>
<path d="M64.8938 94.9011L36.5422 111.27V78.5323L64.8938 94.9011Z" fill="#CA111F"/>
<path d="M37.8022 94.9011L9.4506 111.27L9.4506 78.5323L37.8022 94.9011Z" fill="#CA111F"/>
<path d="M91.3553 47.9011L63.0037 64.2699V31.5323L91.3553 47.9011Z" fill="#FCB33A"/>
<path d="M64.2638 47.9011L35.9121 64.2699V31.5323L64.2638 47.9011Z" fill="#FCB33A"/>
<path d="M37.8022 47.9011L9.4506 64.2699L9.4506 31.5323L37.8022 47.9011Z" fill="#FCB33A"/>
<path d="M91.3553 141.901L63.0037 158.27V125.532L91.3553 141.901Z" fill="#3B28CC"/>
<path d="M64.2638 141.901L35.9121 158.27V125.532L64.2638 141.901Z" fill="#3B28CC"/>
<path d="M37.8022 141.901L9.4506 158.27L9.4506 125.532L37.8022 141.901Z" fill="#3B28CC"/>
<path d="M118.447 47.9011L90.0953 64.2699V31.5323L118.447 47.9011Z" fill="#FCB33A"/>
<path d="M316.264 94.9011L287.912 111.27V78.5323L316.264 94.9011Z" fill="#CA111F"/>
<path d="M289.802 94.9011L261.45 111.27V78.5323L289.802 94.9011Z" fill="#CA111F"/>
<path d="M329.264 141.901L300.912 158.27V125.532L329.264 141.901Z" fill="#3B28CC"/>
<path d="M302.802 141.901L274.45 158.27V125.532L302.802 141.901Z" fill="#3B28CC"/>
</svg>
